<mxfile host="Electron" modified="2024-11-13T02:39:21.182Z" agent="Mozilla/5.0 (Windows NT 10.0; Win64; x64) AppleWebKit/537.36 (KHTML, like Gecko) draw.io/22.0.2 Chrome/114.0.5735.289 Electron/25.8.4 Safari/537.36" etag="zlitgelhu-uwwOEcnOO7" version="22.0.2" type="device">
  <diagram name="第 1 页" id="fSYWZaJNMlL_t06p-1oz">
    <mxGraphModel dx="1563" dy="1272" grid="1" gridSize="10" guides="1" tooltips="1" connect="1" arrows="1" fold="1" page="1" pageScale="1" pageWidth="827" pageHeight="1169" math="0" shadow="0">
      <root>
        <mxCell id="0" />
        <mxCell id="1" parent="0" />
        <mxCell id="fFm2WbIP_SEH0sZtQKVD-21" value="&lt;font face=&quot;新宋体&quot;&gt;老人&lt;/font&gt;" style="shape=umlActor;verticalLabelPosition=bottom;verticalAlign=top;html=1;" parent="1" vertex="1">
          <mxGeometry x="40" y="190" width="30" height="60" as="geometry" />
        </mxCell>
        <mxCell id="fFm2WbIP_SEH0sZtQKVD-22" value="&lt;font face=&quot;新宋体&quot;&gt;机器人&lt;/font&gt;" style="shape=umlActor;verticalLabelPosition=bottom;verticalAlign=top;html=1;" parent="1" vertex="1">
          <mxGeometry x="1330" y="70" width="30" height="60" as="geometry" />
        </mxCell>
        <mxCell id="fFm2WbIP_SEH0sZtQKVD-23" value="&lt;font face=&quot;新宋体&quot;&gt;系统管理员&lt;/font&gt;" style="shape=umlActor;verticalLabelPosition=bottom;verticalAlign=top;html=1;" parent="1" vertex="1">
          <mxGeometry x="1330" y="280" width="30" height="60" as="geometry" />
        </mxCell>
        <mxCell id="fFm2WbIP_SEH0sZtQKVD-63" value="&lt;font face=&quot;新宋体&quot;&gt;&lt;span style=&quot;font-size: 16px;&quot;&gt;场景1：老人按时服药提醒&lt;/span&gt;&lt;/font&gt;" style="swimlane;whiteSpace=wrap;html=1;startSize=30;" parent="1" vertex="1">
          <mxGeometry x="240" y="40" width="920" height="350" as="geometry">
            <mxRectangle x="240" y="40" width="240" height="30" as="alternateBounds" />
          </mxGeometry>
        </mxCell>
        <mxCell id="fFm2WbIP_SEH0sZtQKVD-24" value="发出服药提醒" style="ellipse;whiteSpace=wrap;html=1;" parent="fFm2WbIP_SEH0sZtQKVD-63" vertex="1">
          <mxGeometry x="40" y="150" width="120" height="40" as="geometry" />
        </mxCell>
        <mxCell id="fFm2WbIP_SEH0sZtQKVD-64" value="忽略提醒" style="ellipse;whiteSpace=wrap;html=1;" parent="fFm2WbIP_SEH0sZtQKVD-63" vertex="1">
          <mxGeometry x="520" y="110" width="120" height="40" as="geometry" />
        </mxCell>
        <mxCell id="fFm2WbIP_SEH0sZtQKVD-65" value="&amp;lt;&amp;lt;extend&amp;gt;&amp;gt;" style="endArrow=open;endSize=12;dashed=1;html=1;rounded=0;entryX=1;entryY=0.5;entryDx=0;entryDy=0;exitX=0;exitY=0.5;exitDx=0;exitDy=0;" parent="fFm2WbIP_SEH0sZtQKVD-63" source="fFm2WbIP_SEH0sZtQKVD-64" target="fFm2WbIP_SEH0sZtQKVD-47" edge="1">
          <mxGeometry width="160" relative="1" as="geometry">
            <mxPoint x="1010" y="500" as="sourcePoint" />
            <mxPoint x="400" y="130" as="targetPoint" />
          </mxGeometry>
        </mxCell>
        <mxCell id="NSTzoeEUeNAMsslBzwnI-1" value="通知家属或医生" style="ellipse;whiteSpace=wrap;html=1;" vertex="1" parent="fFm2WbIP_SEH0sZtQKVD-63">
          <mxGeometry x="760" y="150" width="120" height="40" as="geometry" />
        </mxCell>
        <mxCell id="NSTzoeEUeNAMsslBzwnI-2" value="&amp;lt;&amp;lt;extend&amp;gt;&amp;gt;" style="endArrow=open;endSize=12;dashed=1;html=1;rounded=0;entryX=1;entryY=0.5;entryDx=0;entryDy=0;exitX=0;exitY=0.5;exitDx=0;exitDy=0;" edge="1" parent="fFm2WbIP_SEH0sZtQKVD-63" source="NSTzoeEUeNAMsslBzwnI-1">
          <mxGeometry width="160" relative="1" as="geometry">
            <mxPoint x="1250" y="540" as="sourcePoint" />
            <mxPoint x="640" y="130" as="targetPoint" />
          </mxGeometry>
        </mxCell>
        <mxCell id="NSTzoeEUeNAMsslBzwnI-3" value="重新发送提醒" style="ellipse;whiteSpace=wrap;html=1;" vertex="1" parent="fFm2WbIP_SEH0sZtQKVD-63">
          <mxGeometry x="760" y="70" width="120" height="40" as="geometry" />
        </mxCell>
        <mxCell id="NSTzoeEUeNAMsslBzwnI-7" value="网络或系统故障" style="ellipse;whiteSpace=wrap;html=1;" vertex="1" parent="fFm2WbIP_SEH0sZtQKVD-63">
          <mxGeometry x="520" y="190" width="120" height="40" as="geometry" />
        </mxCell>
        <mxCell id="fFm2WbIP_SEH0sZtQKVD-47" value="记录提醒成功情况" style="ellipse;whiteSpace=wrap;html=1;" parent="fFm2WbIP_SEH0sZtQKVD-63" vertex="1">
          <mxGeometry x="280" y="150" width="120" height="40" as="geometry" />
        </mxCell>
        <mxCell id="fFm2WbIP_SEH0sZtQKVD-26" value="&amp;lt;&amp;lt;include&amp;gt;&amp;gt;" style="endArrow=open;endSize=12;dashed=1;html=1;rounded=0;exitX=1;exitY=0.5;exitDx=0;exitDy=0;entryX=0;entryY=0.5;entryDx=0;entryDy=0;" parent="fFm2WbIP_SEH0sZtQKVD-63" source="fFm2WbIP_SEH0sZtQKVD-24" target="fFm2WbIP_SEH0sZtQKVD-47" edge="1">
          <mxGeometry width="160" relative="1" as="geometry">
            <mxPoint x="100" y="150" as="sourcePoint" />
            <mxPoint x="240" y="100" as="targetPoint" />
          </mxGeometry>
        </mxCell>
        <mxCell id="NSTzoeEUeNAMsslBzwnI-8" value="&amp;lt;&amp;lt;extend&amp;gt;&amp;gt;" style="endArrow=open;endSize=12;dashed=1;html=1;rounded=0;exitX=0;exitY=0.5;exitDx=0;exitDy=0;entryX=1;entryY=0.5;entryDx=0;entryDy=0;" edge="1" parent="fFm2WbIP_SEH0sZtQKVD-63" source="NSTzoeEUeNAMsslBzwnI-7" target="fFm2WbIP_SEH0sZtQKVD-47">
          <mxGeometry width="160" relative="1" as="geometry">
            <mxPoint x="530" y="140" as="sourcePoint" />
            <mxPoint x="400" y="130" as="targetPoint" />
          </mxGeometry>
        </mxCell>
        <mxCell id="NSTzoeEUeNAMsslBzwnI-10" value="确认服药" style="ellipse;whiteSpace=wrap;html=1;" vertex="1" parent="fFm2WbIP_SEH0sZtQKVD-63">
          <mxGeometry x="40" y="270" width="120" height="40" as="geometry" />
        </mxCell>
        <mxCell id="NSTzoeEUeNAMsslBzwnI-13" value="网络或系统故障" style="ellipse;whiteSpace=wrap;html=1;" vertex="1" parent="fFm2WbIP_SEH0sZtQKVD-63">
          <mxGeometry x="520" y="270" width="120" height="40" as="geometry" />
        </mxCell>
        <mxCell id="NSTzoeEUeNAMsslBzwnI-14" value="记录服药成功情况" style="ellipse;whiteSpace=wrap;html=1;" vertex="1" parent="fFm2WbIP_SEH0sZtQKVD-63">
          <mxGeometry x="280" y="270" width="120" height="40" as="geometry" />
        </mxCell>
        <mxCell id="NSTzoeEUeNAMsslBzwnI-15" value="&amp;lt;&amp;lt;include&amp;gt;&amp;gt;" style="endArrow=open;endSize=12;dashed=1;html=1;rounded=0;exitX=1;exitY=0.5;exitDx=0;exitDy=0;entryX=0;entryY=0.5;entryDx=0;entryDy=0;" edge="1" parent="fFm2WbIP_SEH0sZtQKVD-63" source="NSTzoeEUeNAMsslBzwnI-10" target="NSTzoeEUeNAMsslBzwnI-14">
          <mxGeometry width="160" relative="1" as="geometry">
            <mxPoint x="100" y="270" as="sourcePoint" />
            <mxPoint x="240" y="220" as="targetPoint" />
          </mxGeometry>
        </mxCell>
        <mxCell id="NSTzoeEUeNAMsslBzwnI-16" value="&amp;lt;&amp;lt;extend&amp;gt;&amp;gt;" style="endArrow=open;endSize=12;dashed=1;html=1;rounded=0;exitX=0;exitY=0.5;exitDx=0;exitDy=0;entryX=1;entryY=0.5;entryDx=0;entryDy=0;" edge="1" parent="fFm2WbIP_SEH0sZtQKVD-63" source="NSTzoeEUeNAMsslBzwnI-13" target="NSTzoeEUeNAMsslBzwnI-14">
          <mxGeometry width="160" relative="1" as="geometry">
            <mxPoint x="530" y="260" as="sourcePoint" />
            <mxPoint x="400" y="250" as="targetPoint" />
          </mxGeometry>
        </mxCell>
        <mxCell id="NSTzoeEUeNAMsslBzwnI-4" value="&amp;lt;&amp;lt;extend&amp;gt;&amp;gt;" style="endArrow=open;endSize=12;dashed=1;html=1;rounded=0;exitX=0;exitY=0.5;exitDx=0;exitDy=0;" edge="1" parent="1">
          <mxGeometry width="160" relative="1" as="geometry">
            <mxPoint x="1000" y="130" as="sourcePoint" />
            <mxPoint x="880" y="170" as="targetPoint" />
          </mxGeometry>
        </mxCell>
        <mxCell id="NSTzoeEUeNAMsslBzwnI-17" value="" style="endArrow=none;html=1;rounded=0;entryX=0;entryY=0.5;entryDx=0;entryDy=0;exitX=1;exitY=0.3333333333333333;exitDx=0;exitDy=0;exitPerimeter=0;" edge="1" parent="1" source="fFm2WbIP_SEH0sZtQKVD-21" target="fFm2WbIP_SEH0sZtQKVD-24">
          <mxGeometry width="50" height="50" relative="1" as="geometry">
            <mxPoint x="110" y="150" as="sourcePoint" />
            <mxPoint x="160" y="100" as="targetPoint" />
          </mxGeometry>
        </mxCell>
        <mxCell id="NSTzoeEUeNAMsslBzwnI-18" value="" style="endArrow=none;html=1;rounded=0;entryX=0;entryY=0.5;entryDx=0;entryDy=0;exitX=1;exitY=0.3333333333333333;exitDx=0;exitDy=0;exitPerimeter=0;" edge="1" parent="1" source="fFm2WbIP_SEH0sZtQKVD-21" target="NSTzoeEUeNAMsslBzwnI-10">
          <mxGeometry width="50" height="50" relative="1" as="geometry">
            <mxPoint x="150" y="400" as="sourcePoint" />
            <mxPoint x="200" y="350" as="targetPoint" />
          </mxGeometry>
        </mxCell>
        <mxCell id="NSTzoeEUeNAMsslBzwnI-19" value="" style="endArrow=none;html=1;rounded=0;entryX=0;entryY=0.3333333333333333;entryDx=0;entryDy=0;entryPerimeter=0;exitX=1;exitY=0.5;exitDx=0;exitDy=0;" edge="1" parent="1" source="NSTzoeEUeNAMsslBzwnI-13" target="fFm2WbIP_SEH0sZtQKVD-23">
          <mxGeometry width="50" height="50" relative="1" as="geometry">
            <mxPoint x="930" y="480" as="sourcePoint" />
            <mxPoint x="980" y="430" as="targetPoint" />
          </mxGeometry>
        </mxCell>
        <mxCell id="NSTzoeEUeNAMsslBzwnI-20" value="" style="endArrow=none;html=1;rounded=0;entryX=0;entryY=0.3333333333333333;entryDx=0;entryDy=0;entryPerimeter=0;exitX=1;exitY=0.5;exitDx=0;exitDy=0;" edge="1" parent="1" source="NSTzoeEUeNAMsslBzwnI-7" target="fFm2WbIP_SEH0sZtQKVD-23">
          <mxGeometry width="50" height="50" relative="1" as="geometry">
            <mxPoint x="860" y="510" as="sourcePoint" />
            <mxPoint x="910" y="460" as="targetPoint" />
          </mxGeometry>
        </mxCell>
        <mxCell id="NSTzoeEUeNAMsslBzwnI-22" value="" style="endArrow=none;html=1;rounded=0;entryX=0;entryY=0.3333333333333333;entryDx=0;entryDy=0;entryPerimeter=0;exitX=1;exitY=0.5;exitDx=0;exitDy=0;" edge="1" parent="1" source="NSTzoeEUeNAMsslBzwnI-3" target="fFm2WbIP_SEH0sZtQKVD-22">
          <mxGeometry width="50" height="50" relative="1" as="geometry">
            <mxPoint x="620" y="520" as="sourcePoint" />
            <mxPoint x="670" y="470" as="targetPoint" />
          </mxGeometry>
        </mxCell>
        <mxCell id="NSTzoeEUeNAMsslBzwnI-23" value="" style="endArrow=none;html=1;rounded=0;entryX=0;entryY=0.3333333333333333;entryDx=0;entryDy=0;entryPerimeter=0;exitX=1;exitY=0.5;exitDx=0;exitDy=0;" edge="1" parent="1" source="NSTzoeEUeNAMsslBzwnI-1" target="fFm2WbIP_SEH0sZtQKVD-22">
          <mxGeometry width="50" height="50" relative="1" as="geometry">
            <mxPoint x="1200" y="230" as="sourcePoint" />
            <mxPoint x="1250" y="180" as="targetPoint" />
          </mxGeometry>
        </mxCell>
        <mxCell id="NSTzoeEUeNAMsslBzwnI-24" value="" style="endArrow=none;html=1;rounded=0;exitX=0.5;exitY=0;exitDx=0;exitDy=0;entryX=0;entryY=0.3333333333333333;entryDx=0;entryDy=0;entryPerimeter=0;" edge="1" parent="1" source="fFm2WbIP_SEH0sZtQKVD-47" target="fFm2WbIP_SEH0sZtQKVD-22">
          <mxGeometry width="50" height="50" relative="1" as="geometry">
            <mxPoint x="600" y="290" as="sourcePoint" />
            <mxPoint x="650" y="240" as="targetPoint" />
            <Array as="points">
              <mxPoint x="760" y="90" />
            </Array>
          </mxGeometry>
        </mxCell>
        <mxCell id="NSTzoeEUeNAMsslBzwnI-25" value="" style="endArrow=none;html=1;rounded=0;exitX=0.5;exitY=0;exitDx=0;exitDy=0;entryX=0;entryY=0.3333333333333333;entryDx=0;entryDy=0;entryPerimeter=0;" edge="1" parent="1" source="NSTzoeEUeNAMsslBzwnI-14" target="fFm2WbIP_SEH0sZtQKVD-22">
          <mxGeometry width="50" height="50" relative="1" as="geometry">
            <mxPoint x="590" y="290" as="sourcePoint" />
            <mxPoint x="640" y="240" as="targetPoint" />
            <Array as="points">
              <mxPoint x="1120" y="270" />
            </Array>
          </mxGeometry>
        </mxCell>
      </root>
    </mxGraphModel>
  </diagram>
</mxfile>
